<svg xmlns="http://www.w3.org/2000/svg" viewBox="0 0 256 256"><defs><style>.cls-1{fill:#0e2448;}.cls-2{fill:#fff;}.cls-3{fill:#fefefe;}.cls-4{fill:#fefeff;}.cls-5{fill:#1f3354;}</style></defs><g id="Layer_2" data-name="Layer 2"><g id="Layer_1-2" data-name="Layer 1"><g id="BzvrpH.tif"><path class="cls-1" d="M214.09,255.94H42.89C27,255.08,16,246.32,7.23,233.78c-5-7.13-6.62-15.08-6.62-23.52C.59,155.69,1,101.12.42,46.55.17,23.29,23.28.17,46.54.42,101.1,1,155.67.56,210.23.62c18.54,0,36.5,12.42,43.36,29.68,1.6,4,1.27,8.45,2.3,12.6V214.12c-1.2,16.67-10.67,27.83-24,36.56C226.4,254.26,220.27,255.05,214.09,255.94Z"/><path class="cls-2" d="M255.89,42.9c-2.17-5.62-3.33-11.61-6.56-16.85-9.88-16-24.11-24.83-43-24.89C154.43,1,102.54,1.07,50.64,1.1A49.53,49.53,0,0,0,1.1,50.66q0,77.36,0,154.71C1.1,230.19,17,249.77,41.28,255a6.15,6.15,0,0,1,1.61.9H.1Q.1,130,0,4.08C0,.67.67,0,4.08,0Q128,.18,251.91,0c3.41,0,4.15.66,4.09,4.08C255.74,17,255.89,30,255.89,42.9Z"/><path class="cls-3" d="M214.09,255.94c5-2,10.34-2.94,15.12-5.59,13.68-7.56,22.32-18.84,25.7-34.11.17-.8.09-1.67,1-2.12,0,13.11-.06,26.22.07,39.33,0,2.14-.42,2.57-2.56,2.55C240.3,255.87,227.19,255.94,214.09,255.94Z"/><path class="cls-4" d="M132.24,205.15c8.69-5.74,16.67-11,24.59-16.29,1.13-.75,1.85-9.61,1-10.43a1.76,1.76,0,0,0-2.29,0c-2.17,1.5-2.59-.1-3.6-1.57-2.51-3.64-1.9-5.68,2.38-7.2,3.86-1.36,7.48-3.43,12-5.55,0,9.3,0,18.12,0,26.94,0,2.14-1.79,2.62-3.09,3.49-11,7.36-22.08,14.64-33,22.06-1.62,1.1-2.62,1.2-4.28.07q-16.65-11.28-33.48-22.31c-1.77-1.17-2.85-2.29-2.8-4.7.18-8.28.07-16.57.07-25.58,5.11,2.44,9.79,4.76,14.55,6.9,2,.89,2,2.22.88,3.5-1.27,1.47-.51,5.53-4.07,4.12-3.38-1.35-3,.41-3.18,2.6-.45,4.68.72,7.91,5.26,10.44,6.89,3.83,13.25,8.59,19.81,12.94,1.39-1.38.85-2.77.85-4,0-21.4-.08-42.8.13-64.2,0-4-1.12-5.38-5-4.84-1.63.23-3.36-.22-5,.09-5.12,1-5.25-2-5-5.74.1-1.93.76-2.68,2.66-2.59a29.66,29.66,0,0,0,6,0c2.08-.32,5.42,1.57,6-1.39.64-3.21,1.49-6.91-2.89-9.46-4.9-2.85-6.26-8.79-4.37-14a12.38,12.38,0,0,1,23.46.15c1.83,5.24.39,11-4.57,14-4.17,2.46-2.67,5.88-2.9,9.1-.12,1.6,1.14,1.73,2.39,1.72,2.49,0,5,0,7.46,0,4.69,0,6.24,2.26,4.92,6.73-.57,1.92-1.93,1.37-3.15,1.52-3.82.48-9-1.89-11.14,1.23-1.8,2.59-.49,7.37-.54,11.17,0,1.83,0,3.65,0,5.48,0,6.49,0,6.49,6.5,4.93,20.26-4.86,34.29-24.64,32.52-45.84-1.8-21.45-19.52-38.19-41.68-39.39-20.61-1.11-39.95,14-43.94,34.34-4.16,21.18,6.21,40.9,26.37,49,4.82,1.93,3.69,5.12,3.61,8.33,0,2.38-1.8,1.2-2.91.89A45,45,0,0,1,96.11,153c-2.12-1.75-3.39-1.83-5.25.24-2.88,3.2-6.23,6-9.06,9.23-2.5,2.86-3.62.45-5-1s-4-2.38-1.13-4.94c3.21-2.87,6-6.17,9.23-9.06,2-1.83,2.59-3.14.71-5.66a45.23,45.23,0,0,1-8.91-24.37c-.16-2.4-1.06-3.07-3.33-3-4.81.14-9.64-.2-14.43.11-4,.27-3-2.32-3.15-4.47-.17-2.38-.11-4.13,3.23-3.9,4.29.31,8.63-.14,12.93.15,3.34.21,5.06-.57,5.59-4.24a43.9,43.9,0,0,1,10.1-21.82c1.7-2,1.41-3.14-.38-4.82-4-3.73-7.65-7.84-11.7-11.51-2.65-2.39-.28-3.39,1-4.45s2.17-4.41,4.94-1.52c3.67,3.84,7.61,7.41,11.22,11.3,2,2.15,3.37,2.75,6.07.72a43.91,43.91,0,0,1,21-8.35c2.89-.37,4.33-1.31,4.12-4.65-.32-5.28.14-10.62-.15-15.91-.22-3.91,2.24-3.14,4.48-3.23s4.18-.18,4,3.2c-.26,5.29.08,10.62-.13,15.92-.11,2.79.53,4.23,3.58,4.6A46,46,0,0,1,158,70.57c1.91,1.43,3,1.11,4.54-.5,3.76-4,7.88-7.62,11.53-11.69,2.77-3.09,3.81-.25,5.36,1.09s3.3,2.56.66,4.88c-4,3.51-7.49,7.52-11.36,11.15-1.75,1.63-2.18,2.72-.43,4.8a45.22,45.22,0,0,1,10.26,22.29c.49,3.19,2,3.94,4.92,3.79,4.47-.24,9,.16,13.43-.14,3.28-.22,3.47,1.45,3.26,3.87-.18,2.12.92,4.76-3.12,4.5-4.79-.31-9.62,0-14.43-.11-2.26-.07-3.19.58-3.35,3a46.36,46.36,0,0,1-9.16,24.8c-1.6,2.18-1.07,3.3.6,4.88,3.26,3.06,6.25,6.43,9.57,9.42,2.85,2.56.18,3.59-1.12,4.93s-2.46,3.83-5,1c-2.95-3.35-6.38-6.29-9.41-9.57-1.62-1.75-2.72-1.64-4.5-.2a47.46,47.46,0,0,1-25.23,10.75c-1.63.17-2.84.61-2.83,2.64C132.26,178.82,132.24,191.54,132.24,205.15Z"/><path class="cls-5" d="M128.4,106.72c-2.93,0-4.41-1.57-4.48-3.92-.08-2.63,1.44-4.29,4.27-4.2a3.71,3.71,0,0,1,3.9,4.1A3.81,3.81,0,0,1,128.4,106.72Z"/></g></g></g></svg>